<svg xmlns="http://www.w3.org/2000/svg" xmlns:xlink="http://www.w3.org/1999/xlink" width="32" height="248" viewBox="0 0 32 248"><svg baseProfile="full" width="32" height="32" id="dribbble" y="0"><path fill="#fff" fill-rule="evenodd" d="M22.896 30.406l-.04.02c-2.08.993-4.4 1.565-6.857 1.565C7.18 31.99.007 24.82.007 16c0-6.6 4.02-12.277 9.74-14.717.023-.01.046-.022.072-.03C11.722.453 13.81.008 16 .008 24.817.008 31.99 7.182 31.99 16c0 6.346-3.726 11.824-9.096 14.406zm.34-2.453c3.4-2.066 5.837-5.538 6.533-9.6-.944-.274-4.598-1.158-9.22-.24 1.674 4.304 2.395 7.914 2.685 9.84zm-1.89.972c-.198-1.53-.86-5.506-2.756-10.326-.84.253-1.7.566-2.573.962-5.795 2.624-8.12 6.467-8.635 7.438 2.378 1.867 5.366 2.99 8.617 2.99 1.893 0 3.698-.38 5.347-1.065zM2.01 16c0 3.727 1.474 7.11 3.857 9.62.95-1.614 3.617-5.294 9.328-7.88.892-.404 1.767-.724 2.624-.993-.373-.842-.782-1.7-1.235-2.57-.094-.183-.18-.338-.274-.515-4.723 1.477-8.81 1.823-11.524 1.823-1.204 0-2.126-.065-2.73-.125-.01.215-.046.423-.046.64zm.28-2.63c1.785.164 6.84.37 13.057-1.502-2.64-4.776-4.607-7.39-5.46-8.434C5.993 5.337 3.13 8.996 2.29 13.37zm13.71-11.362c-1.454 0-2.858.225-4.18.64 1.075 1.372 2.99 4.07 5.455 8.575 5.485-2.06 7.184-4.892 7.65-5.99-2.425-2.013-5.535-3.225-8.924-3.225zm10.43 4.697c-.904 1.664-3.087 4.32-8.207 6.297.047.088.09.163.136.252.526 1.012.98 1.998 1.405 2.967 4.796-1.054 8.674-.295 10.21.11.002-.11.022-.217.022-.33 0-3.57-1.355-6.82-3.564-9.295z"/></svg><svg baseProfile="full" width="32" height="32" id="dribble-hover" y="32"><path fill="#e94b89" fill-rule="evenodd" d="M22.896 30.406l-.04.02c-2.08.993-4.4 1.565-6.857 1.565C7.18 31.99.007 24.82.007 16c0-6.6 4.02-12.277 9.74-14.717.023-.01.046-.022.072-.03C11.722.453 13.81.008 16 .008 24.817.008 31.99 7.182 31.99 16c0 6.346-3.726 11.824-9.096 14.406zm.34-2.453c3.4-2.066 5.837-5.538 6.533-9.6-.944-.274-4.598-1.158-9.22-.24 1.674 4.304 2.395 7.914 2.685 9.84zm-1.89.972c-.198-1.53-.86-5.506-2.756-10.326-.84.253-1.7.566-2.573.962-5.795 2.624-8.12 6.467-8.635 7.438 2.378 1.867 5.366 2.99 8.617 2.99 1.893 0 3.698-.38 5.347-1.065zM2.01 16c0 3.727 1.474 7.11 3.857 9.62.95-1.614 3.617-5.294 9.328-7.88.892-.404 1.767-.724 2.624-.993-.373-.842-.782-1.7-1.235-2.57-.094-.183-.18-.338-.274-.515-4.723 1.477-8.81 1.823-11.524 1.823-1.204 0-2.126-.065-2.73-.125-.01.215-.046.423-.046.64zm.28-2.63c1.785.164 6.84.37 13.057-1.502-2.64-4.776-4.607-7.39-5.46-8.434C5.993 5.337 3.13 8.996 2.29 13.37zm13.71-11.362c-1.454 0-2.858.225-4.18.64 1.075 1.372 2.99 4.07 5.455 8.575 5.485-2.06 7.184-4.892 7.65-5.99-2.425-2.013-5.535-3.225-8.924-3.225zm10.43 4.697c-.904 1.664-3.087 4.32-8.207 6.297.047.088.09.163.136.252.526 1.012.98 1.998 1.405 2.967 4.796-1.054 8.674-.295 10.21.11.002-.11.022-.217.022-.33 0-3.57-1.355-6.82-3.564-9.295z"/></svg><svg baseProfile="full" width="32" height="33" id="envelope" y="64"><path fill="#fff" fill-rule="evenodd" d="M29.998 32.035h-28c-1.1 0-2-.9-2-2V15.05c0-.695.36-1.308.902-1.666l5.098-5.098V4.993c0-.553.447-1 1-1H10.3L13.94.877c1.134-1.134 3.112-1.132 4.244 0l3.65 3.116h3.166c.553 0 1 .447 1 1V8.22l5.223 5.262c.135.106.255.225.358.36l.027.027H31.6c.172.23.273.507.334.8.042.112.06.23.058.348 0 .01.006.02.006.032v14.985c0 1.1-.9 2-2 2zm-1.332-2L16.67 19.162c-.192-.15-.48-.25-.766-.25-.282 0-.55.096-.777.278l-4.35 4.037c-.032.052-.05.11-.092.157-.1.114-.222.198-.353.255l-6.895 6.395h25.23zM1.998 28.643l6.404-5.94-6.404-5.65v11.59zM3.243 13.87h-.046l-.843.83 3.644 3.215v-6.8L3.243 13.87zM16.767 2.29c-.19-.188-.44-.292-.708-.292-.267 0-.518.104-.707.293l-2.017 1.703h5.45l-2.02-1.702zm-8.77 3.703V19.68l1.878 1.656 3.957-3.67c1.247-1.006 2.938-.966 4.115-.043l4.26 3.86 1.79-1.588V5.993h-16zM28.06 13.05l-2.062-2.06v7.13l3.747-3.326-1.715-1.744h.03zm1.938 4.195l-6.3 5.59 6.3 5.71v-11.3z"/></svg><svg baseProfile="full" width="32" height="33" id="envelope-hover" y="97"><path fill="#dfd564" fill-rule="evenodd" d="M29.998 32.035h-28c-1.1 0-2-.9-2-2V15.05c0-.695.36-1.308.902-1.666l5.098-5.098V4.993c0-.553.447-1 1-1H10.3L13.94.877c1.134-1.134 3.112-1.132 4.244 0l3.65 3.116h3.166c.553 0 1 .447 1 1V8.22l5.223 5.262c.135.106.255.225.358.36l.027.027H31.6c.172.23.273.507.334.8.042.112.06.23.058.348 0 .01.006.02.006.032v14.985c0 1.1-.9 2-2 2zm-1.332-2L16.67 19.162c-.192-.15-.48-.25-.766-.25-.282 0-.55.096-.777.278l-4.35 4.037c-.032.052-.05.11-.092.157-.1.114-.222.198-.353.255l-6.895 6.395h25.23zM1.998 28.643l6.404-5.94-6.404-5.65v11.59zM3.243 13.87h-.046l-.843.83 3.644 3.215v-6.8L3.243 13.87zM16.767 2.29c-.19-.188-.44-.292-.708-.292-.267 0-.518.104-.707.293l-2.017 1.703h5.45l-2.02-1.702zm-8.77 3.703V19.68l1.878 1.656 3.957-3.67c1.247-1.006 2.938-.966 4.115-.043l4.26 3.86 1.79-1.588V5.993h-16zM28.06 13.05l-2.062-2.06v7.13l3.747-3.326-1.715-1.744h.03zm1.938 4.195l-6.3 5.59 6.3 5.71v-11.3z"/></svg><svg baseProfile="full" width="16" height="31" id="facebook" y="130"><path fill="#fff" fill-rule="evenodd" d="M10.172 2.017c.118 0 .186.005.186.005h2.6c.002 0-.012 3.003-.012 3.003h-2.584c-1.422 0-1.39 1.22-1.39 1.22v4.76h5.032l-.702 3H8.957v15.008H5.97V14.005H2.002l-.007-3H5.97V6.34c0-4.07 3.364-4.323 4.202-4.323m2.787.005h.004M10.172.015c-.716 0-2.116.12-3.442.922-1.255.76-2.75 2.313-2.75 5.402v2.664H1.995c-.53 0-1.037.212-1.412.588-.373.378-.583.888-.58 1.42l.007 3c.005 1.103.896 1.995 1.993 1.995h1.974l.002 13.006c0 1.106.89 2.002 1.99 2.002h2.987c1.1 0 1.992-.896 1.992-2.002V16.007H13.3c.884 0 1.662-.585 1.91-1.438l.704-3c.177-.605.06-1.26-.317-1.763-.377-.506-.968-.803-1.596-.803h-3.04V7.028h1.982c1.096 0 1.987-.89 1.992-1.994l.014-2.9.003-.112c0-1.105-.89-2.002-1.99-2.002H10.413c-.057-.003-.14-.005-.242-.005z"/></svg><svg baseProfile="full" width="16" height="31" id="facebook-hover" y="161"><path fill="#3b5997" fill-rule="evenodd" d="M10.172 2.017c.118 0 .186.005.186.005h2.6c.002 0-.012 3.003-.012 3.003h-2.584c-1.422 0-1.39 1.22-1.39 1.22v4.76h5.032l-.702 3H8.957v15.008H5.97V14.005H2.002l-.007-3H5.97V6.34c0-4.07 3.364-4.323 4.202-4.323m2.787.005h.004M10.172.015c-.716 0-2.116.12-3.442.922-1.255.76-2.75 2.313-2.75 5.402v2.664H1.995c-.53 0-1.037.212-1.412.588-.373.378-.583.888-.58 1.42l.007 3c.005 1.103.896 1.995 1.993 1.995h1.974l.002 13.006c0 1.106.89 2.002 1.99 2.002h2.987c1.1 0 1.992-.896 1.992-2.002V16.007H13.3c.884 0 1.662-.585 1.91-1.438l.704-3c.177-.605.06-1.26-.317-1.763-.377-.506-.968-.803-1.596-.803h-3.04V7.028h1.982c1.096 0 1.987-.89 1.992-1.994l.014-2.9.003-.112c0-1.105-.89-2.002-1.99-2.002H10.413c-.057-.003-.14-.005-.242-.005z"/></svg><svg baseProfile="full" width="32" height="28" id="twitter" y="192"><path fill="#fff" fill-rule="evenodd" d="M21.395 2.96c1.653 0 3.145.675 4.196 1.76 1.308-.252 2.54-.713 3.648-1.352-.428 1.3-1.34 2.393-2.525 3.083 1.16-.135 2.27-.433 3.3-.878-.772 1.117-1.745 2.1-2.868 2.886.01.24.017.48.017.72 0 7.367-5.78 15.862-16.353 15.862-3.247 0-6.27-.926-8.81-2.506.448.053.905.08 1.37.08 2.69-.002 5.17-.892 7.14-2.39-2.518-.042-4.642-1.655-5.37-3.87.35.066.71.1 1.082.1.522 0 1.03-.066 1.512-.194-2.63-.51-4.61-2.764-4.61-5.466v-.07c.775.417 1.66.668 2.604.697-1.543-1-2.557-2.704-2.557-4.638 0-1.023.285-1.98.78-2.8C6.782 7.35 11.017 9.57 15.795 9.803c-.1-.407-.15-.837-.15-1.27 0-3.08 2.574-5.575 5.75-5.575m8.618 2.612h.005M21.393.96c-3.926 0-7.18 2.868-7.68 6.575C10.5 6.89 7.578 5.19 5.478 2.695c-.38-.455-.943-.714-1.53-.714-.053 0-.105.003-.158.007-.644.05-1.223.41-1.556.962C1.54 4.104 1.17 5.428 1.17 6.78c0 .9.163 1.78.47 2.6-.328.363-.516.84-.516 1.34v.072c0 1.96.774 3.776 2.06 5.14-.074.342-.057.702.056 1.046.444 1.35 1.25 2.512 2.298 3.398-.703.155-1.43.235-2.17.235-.39 0-.77-.022-1.132-.066-.08-.01-.16-.014-.238-.014-.84 0-1.603.53-1.886 1.337-.31.885.034 1.866.83 2.362 2.954 1.838 6.366 2.808 9.867 2.808 11.374 0 18.217-8.905 18.35-17.604.932-.77 1.754-1.662 2.452-2.66.254-.335.405-.752.405-1.204 0-.68-.34-1.283-.86-1.644.226-.77-.03-1.603-.656-2.11-.364-.298-.812-.45-1.262-.45-.344 0-.688.088-1 .268-.66.38-1.367.683-2.11.9C24.78 1.523 23.11.958 21.394.958z"/></svg><svg baseProfile="full" width="32" height="28" id="twitter-hover" y="220"><path fill="#0083b3" fill-rule="evenodd" d="M21.395 2.96c1.653 0 3.145.675 4.196 1.76 1.308-.252 2.54-.713 3.648-1.352-.428 1.3-1.34 2.393-2.525 3.083 1.16-.135 2.27-.433 3.3-.878-.772 1.117-1.745 2.1-2.868 2.886.01.24.017.48.017.72 0 7.367-5.78 15.862-16.353 15.862-3.247 0-6.27-.926-8.81-2.506.448.053.905.08 1.37.08 2.69-.002 5.17-.892 7.14-2.39-2.518-.042-4.642-1.655-5.37-3.87.35.066.71.1 1.082.1.522 0 1.03-.066 1.512-.194-2.63-.51-4.61-2.764-4.61-5.466v-.07c.775.417 1.66.668 2.604.697-1.543-1-2.557-2.704-2.557-4.638 0-1.023.285-1.98.78-2.8C6.782 7.35 11.017 9.57 15.795 9.803c-.1-.407-.15-.837-.15-1.27 0-3.08 2.574-5.575 5.75-5.575m8.618 2.612h.005M21.393.96c-3.926 0-7.18 2.868-7.68 6.575C10.5 6.89 7.578 5.19 5.478 2.695c-.38-.455-.943-.714-1.53-.714-.053 0-.105.003-.158.007-.644.05-1.223.41-1.556.962C1.54 4.104 1.17 5.428 1.17 6.78c0 .9.163 1.78.47 2.6-.328.363-.516.84-.516 1.34v.072c0 1.96.774 3.776 2.06 5.14-.074.342-.057.702.056 1.046.444 1.35 1.25 2.512 2.298 3.398-.703.155-1.43.235-2.17.235-.39 0-.77-.022-1.132-.066-.08-.01-.16-.014-.238-.014-.84 0-1.603.53-1.886 1.337-.31.885.034 1.866.83 2.362 2.954 1.838 6.366 2.808 9.867 2.808 11.374 0 18.217-8.905 18.35-17.604.932-.77 1.754-1.662 2.452-2.66.254-.335.405-.752.405-1.204 0-.68-.34-1.283-.86-1.644.226-.77-.03-1.603-.656-2.11-.364-.298-.812-.45-1.262-.45-.344 0-.688.088-1 .268-.66.38-1.367.683-2.11.9C24.78 1.523 23.11.958 21.394.958z"/></svg></svg>